<?xml version="1.0" encoding="UTF-8"?>
<svg version="1.1" xmlns="http://www.w3.org/2000/svg" width="1920" height="1080">
    <path
        d="M0 0 C633.6 0 1267.2 0 1920 0 C1920 43.23 1920 86.46 1920 131 C1914.12618545 129.69470788 1909.11531495 128.43986061 1903.5625 126.4375 C1894.43557544 123.29748209 1886.3257945 121.7388326 1877 125 C1875.515 125.99 1875.515 125.99 1874 127 C1873.56680584 129.15481324 1873.56680584 129.15481324 1873.671875 131.671875 C1873.67638672 132.63504639 1873.68089844 133.59821777 1873.68554688 134.59057617 C1873.70681641 135.63318604 1873.72808594 136.6757959 1873.75 137.75 C1873.76643555 139.36515503 1873.76643555 139.36515503 1873.78320312 141.01293945 C1873.87838408 148.07857318 1874.14763266 155.13057798 1874.5 162.1875 C1874.86796476 169.56212709 1875.16074545 176.92865481 1875.25 184.3125 C1875.27126953 185.15385498 1875.29253906 185.99520996 1875.31445312 186.86206055 C1875.3468014 192.63218478 1874.45233519 197.7346921 1872 203 C1869.61989236 205.38010764 1868.18511421 205.93535741 1864.8515625 206.1171875 C1860.59873498 205.90525257 1858.46987728 205.36990339 1855.0625 202.6875 C1851.79522842 198.43014612 1850.73402921 195.78235057 1850.8125 190.375 C1850.81894531 189.41335937 1850.82539062 188.45171875 1850.83203125 187.4609375 C1850.96453155 184.73081514 1851.19659234 182.07645961 1851.49609375 179.36328125 C1853.33019381 161.70820421 1854.67367865 139.23626149 1844 124 C1837.71755559 116.89517553 1831.29821837 114.17238456 1822 113.3125 C1802.41581231 111.60252676 1802.41581231 111.60252676 1785 119 C1778.99095371 124.49049915 1775.07348976 131.524531 1770.99536133 138.47705078 C1766.16534827 146.65576783 1761.19843793 153.63479897 1751.8125 156.71875 C1745.27818647 158.14289526 1738.65704201 158.20180833 1732 158.4375 C1715.15149092 159.06770498 1706.86604454 162.93908941 1695.21801758 174.95092773 C1687.75200021 182.47384875 1679.0852928 187.2098792 1668.375 187.5 C1659.20573973 187.40043251 1651.06452421 184.68281266 1642.43041992 181.80859375 C1632.26533572 178.42669934 1622.83438758 175.98329547 1612.1875 179.125 C1611.135625 179.74375 1610.08375 180.3625 1609 181 C1608.26136719 181.39058594 1607.52273438 181.78117188 1606.76171875 182.18359375 C1599.31514552 186.48578745 1596.39609948 191.82760023 1594.18676758 200.01293945 C1592.29916671 208.51756338 1591.33743572 216.82977099 1590.7210083 225.50366211 C1587.77982076 266.02568372 1587.77982076 266.02568372 1577.5 276.5625 C1574.81264708 278.10772793 1573.1062084 278.92234479 1570 279 C1566.28756541 277.32056531 1564.19148533 275.39354984 1562 272 C1561.41577148 269.75756836 1561.41577148 269.75756836 1561.12109375 267.33984375 C1560.94610352 266.0259668 1560.94610352 266.0259668 1560.76757812 264.68554688 C1560.65865234 263.77869141 1560.54972656 262.87183594 1560.4375 261.9375 C1560.21404154 260.13323253 1559.98385099 258.32978274 1559.74609375 256.52734375 C1559.64997803 255.73062256 1559.5538623 254.93390137 1559.45483398 254.11303711 C1559.0733711 251.7122674 1559.0733711 251.7122674 1557 249 C1554.13128132 248.08171206 1554.13128132 248.08171206 1551 249 C1544.90709279 255.42494575 1543.7668379 264.38653233 1543.375 272.875 C1543.31481689 273.96095459 1543.31481689 273.96095459 1543.25341797 275.06884766 C1543.02175227 279.74127402 1543.00621965 284.38386717 1543.08764648 289.06030273 C1543.2343644 298.15201851 1543.18988667 306.48099388 1537.75 314.1875 C1534.14227538 316.5653185 1532.24226351 316.75754706 1528 316 C1523.89009962 312.89474194 1522.06019788 310.0118445 1521 305 C1520.42664555 297.10441018 1522.01400224 289.66587411 1523.578125 281.96679688 C1526.0038393 269.17115395 1524.97599809 257.38222698 1522.56640625 244.671875 C1520.59833449 233.6306806 1519.47586659 222.78944821 1519.21484375 211.578125 C1519.1988274 210.90445389 1519.18281105 210.23078278 1519.16630936 209.53669739 C1519.06055006 204.77479527 1518.99583121 200.01267981 1518.9375 195.25 C1518.88346112 191.0773485 1518.82246401 186.90516641 1518.73377991 182.73309326 C1518.68126268 180.17451919 1518.64537456 177.61552354 1518.62986755 175.05645752 C1518.39442408 163.48009317 1515.21049738 152.97158774 1507.40625 144.2109375 C1504.06354486 141.00497939 1501.15833289 139.14051778 1496.36328125 138.8984375 C1487.52896521 139.27809406 1479.13843018 140.40668458 1472 146 C1466.23536747 152.56899986 1467.5148994 161.72226289 1467.79443359 169.96923828 C1468.25981616 176.8305912 1469.42560246 183.61997555 1470.5769043 190.39477539 C1473.77966424 209.63558758 1473.77966424 209.63558758 1469 218 C1466.79816251 220.88516636 1465.52915397 221.83112107 1462.0625 222.9375 C1458.20987307 223.01612504 1456.91269914 222.52944926 1454 220 C1450.38639276 214.27643417 1448.85749843 209.12298344 1448.93408203 202.36791992 C1448.94384064 201.23541306 1448.95359924 200.10290619 1448.96365356 198.93608093 C1448.97822601 197.71322891 1448.99279846 196.49037689 1449.0078125 195.23046875 C1449.02534828 192.6230509 1449.04225465 190.01562875 1449.05859375 187.40820312 C1449.08817117 183.311823 1449.12354418 179.21559412 1449.17138672 175.11938477 C1450.65766847 149.46449815 1450.65766847 149.46449815 1442 126 C1436.97071429 120.88225904 1436.97071429 120.88225904 1431 117 C1427.30045749 117.00743627 1423.61270236 117.07625566 1419.91601562 117.21484375 C1414.41476622 117.31478387 1410.95527949 116.3511351 1406 114 C1397.45298618 114.15262525 1391.70221613 119.03856361 1385.6875 124.5 C1376.90664347 132.10079569 1369.80497978 134.73885481 1357.984375 134.3828125 C1347.94191592 133.5993233 1338.51236448 130.24938126 1329.125 126.8125 C1318.01814171 122.78099281 1310.46968454 122.51179697 1299 126 C1295.94151601 136.66980056 1298.39037407 149.58821041 1299 160.5625 C1300.87400706 194.36694616 1300.87400706 194.36694616 1296.4375 203.0625 C1292.8559668 205.90935972 1289.52101212 206.40029795 1285 206 C1280.55605537 203.86032295 1277.92178299 201.5515913 1276 197 C1274.73794795 191.17514438 1275.15205596 186.05273267 1275.9375 180.1875 C1278.44360718 161.16695219 1279.08256829 139.5849207 1268 123 C1263.20774373 117.45860942 1257.30806831 114.3364792 1250.02758789 113.59594727 C1248.59281624 113.56973906 1247.15765552 113.56060556 1245.72265625 113.56640625 C1244.95247665 113.5611644 1244.18229706 113.55592255 1243.38877869 113.55052185 C1241.76937051 113.54413481 1240.14991573 113.54539538 1238.53051758 113.55395508 C1236.07222751 113.56246632 1233.61626441 113.53365895 1231.15820312 113.50195312 C1229.57552152 113.50034065 1227.99283586 113.50091954 1226.41015625 113.50390625 C1225.32384666 113.48705528 1225.32384666 113.48705528 1224.21559143 113.46986389 C1217.61472509 113.5586353 1212.50887601 115.8176761 1207.5390625 120.140625 C1206.59160156 121.18476563 1206.59160156 121.18476563 1205.625 122.25 C1204.45064015 123.53197051 1203.24970677 124.7913634 1202 126 C1201.34 126 1200.68 126 1200 126 C1200 126.66 1200 127.32 1200 128 C1191.00804329 136.20912754 1178.9642064 139.64702306 1167.6875 143.5 C1157.41596122 147.16757769 1150.06444553 151.03825235 1145 161 C1144.66097656 161.66515625 1144.32195312 162.3303125 1143.97265625 163.015625 C1139.80000129 173.09152914 1141.8428821 185.25635467 1143 195.8125 C1144.61760137 211.09419464 1144.23978139 224.62744905 1141.5 239.8125 C1138.15405886 258.61545039 1137.7696452 274.73457753 1142.39599609 293.3527832 C1143.91825894 299.77209716 1144.74527399 305.77424207 1142 312 C1139.16110159 314.7056486 1138.11823949 314.9887391 1134.0625 315.375 C1130.28022575 315.19924376 1127.9059836 314.57387119 1125 312 C1119.72160608 302.19726843 1120.72754236 290.93577413 1120.5703125 280.109375 C1120.31144432 269.77622034 1119.52633606 259.92983279 1114 251 C1114 250.34 1114 249.68 1114 249 C1111.36 249 1108.72 249 1106 249 C1104.08381758 252.83236483 1104.66753748 257.82344677 1104.5703125 262.08398438 C1104.31307086 268.57397655 1103.40243991 273.77334838 1098.4375 278.375 C1093.72793364 281.51471091 1089.58999595 281.79228289 1084 281 C1080.60965694 278.4572427 1078.52610727 275.92427583 1077 272 C1076.77030755 269.35417555 1076.63198654 266.77471503 1076.5625 264.125 C1076.24382198 256.19291747 1075.31447702 248.46208859 1074.15429688 240.61352539 C1073.14715881 233.60673936 1072.55722657 226.62193165 1072.0625 219.5625 C1070.83213531 200.58467016 1070.83213531 200.58467016 1061 185 C1052.03676203 178.6516224 1044.02238922 176.33498652 1033 178 C1025.40104174 179.91424139 1018.00122762 182.52306117 1010.62451172 185.15209961 C1001.16570895 188.20795282 989.45914784 188.74057021 980.33203125 184.45703125 C974.88880231 181.05615287 970.34918041 176.54802836 966.015625 171.84765625 C958.0453983 163.26813536 948.81970383 159.26840593 937.20703125 158.75390625 C935.4088822 158.68931899 933.61070371 158.62554726 931.8125 158.5625 C908.13332762 157.54546548 908.13332762 157.54546548 899.25 148.375 C894.80250969 143.18192651 891.38535958 137.35825873 887.94433594 131.47216797 C883.8018507 124.42264888 879.90794146 118.23349921 872 115 C868.93766252 114.45737641 865.9520904 114.43785953 862.84765625 114.46875 C861.55921059 114.46300964 861.55921059 114.46300964 860.24473572 114.45715332 C858.43698955 114.45444427 856.62920351 114.46173461 854.8215332 114.47851562 C852.07348055 114.4999145 849.32804966 114.47869439 846.58007812 114.453125 C844.81509846 114.45576897 843.05012042 114.46089538 841.28515625 114.46875 C840.47345474 114.46065308 839.66175323 114.45255615 838.82545471 114.44421387 C831.59068215 114.56151956 825.97455055 116.80577407 820.8125 121.9375 C809.44089358 136.43862209 809.48701459 158.27641763 811.48828125 175.75 C811.67438277 177.22984344 811.86561632 178.70905244 812.0625 180.1875 C813.03829013 187.52867758 813.77424487 193.57824204 810.25 200.375 C807.84628098 203.17933886 806.45883329 204.69332964 803 206 C798.49777897 206.26626038 795.13816461 205.90469495 791.5625 203.0625 C787.15017766 194.41434821 787.86316646 185.00927401 788.3125 175.5625 C788.3674256 174.22619514 788.42137161 172.88984967 788.47436523 171.5534668 C788.80754517 163.37854605 789.2313952 155.20781148 789.69018555 147.0390625 C790.51254179 136.4284378 790.51254179 136.4284378 789 126 C787.21489387 125.4571069 785.42133108 124.94201112 783.625 124.4375 C782.62726562 124.14746094 781.62953125 123.85742188 780.6015625 123.55859375 C771.46905202 122.14216317 763.47262274 124.8911675 754.9375 127.9375 C741.11534839 132.80004421 725.54781748 138.07892673 711.3359375 131.46875 C707.60785875 129.12467373 704.49884624 126.21554932 701.31640625 123.1875 C696.80223662 118.92454049 692.19491403 115.31806681 686 114 C682.93484634 114.25021662 680.62104971 114.6906126 677.8671875 116.0625 C674.55078986 117.1468807 672.01360428 117.04265218 668.56542969 116.86914062 C659.96266043 116.2601051 659.96266043 116.2601051 652.25 119.5 C650.50826142 121.14775282 650.50826142 121.14775282 649 123 C648.44183594 123.59167969 647.88367188 124.18335937 647.30859375 124.79296875 C638.49015888 135.09885046 638.85561768 149.4670897 639.0078125 162.2734375 C639.02084816 164.22698543 639.03386533 166.18053368 639.04582024 168.13408852 C639.07618292 172.92220193 639.11629634 177.71015352 639.17138672 182.49804688 C639.20191099 185.19252328 639.22422058 187.88683622 639.23776245 190.58145142 C639.25082639 193.10919513 639.27573002 195.63691407 639.3142395 198.16439819 C639.33868379 206.3586515 638.51148513 212.98162379 634.125 220 C631.63413503 222.3443435 630.40590127 222.91692924 627 223 C622.09482191 221.89633493 619.86945079 218.98534832 617 215 C614.04170914 206.12512742 616.48421419 195.92907625 618 187 C619.30559978 178.74158577 620.40374742 170.62064075 620.4375 162.25 C620.45200195 161.13625 620.45200195 161.13625 620.46679688 160 C620.38667942 154.91018552 619.38755986 151.40989938 617 147 C615.25581647 145.23868268 615.25581647 145.23868268 613.1875 144.1875 C612.54167969 143.80980469 611.89585937 143.43210938 611.23046875 143.04296875 C606.214688 140.69758616 601.51056023 139.64067107 596 139.1875 C594.824375 139.07792969 593.64875 138.96835938 592.4375 138.85546875 C587.6921799 139.05498789 584.64585682 140.59588875 581.05859375 143.65625 C574.20939646 151.44618041 569.96900339 160.32656795 569.78222656 170.74536133 C569.75839905 171.90630814 569.73457153 173.06725494 569.71002197 174.26338196 C569.68712097 175.52353622 569.66421997 176.78369049 569.640625 178.08203125 C569.59300428 180.10074157 569.54535346 182.11945155 569.49621201 184.13812542 C569.37610385 189.08006133 569.26151288 194.02191804 569.17675781 198.96459961 C568.88172365 215.73300124 567.83812693 231.93118492 564.71490479 248.43501282 C562.40133124 260.89963709 562.47968308 272.40675083 565 284.8125 C568.84137726 304.11022968 568.84137726 304.11022968 564 313 C561.56982249 315.77734572 560.24843496 315.96386401 556.5625 316.5 C553 316 553 316 550.25 314.1875 C544.7970358 306.46246738 544.63745499 297.45679964 544.9375 288.3125 C545.36003478 268.29115303 545.36003478 268.29115303 538 250 C536.87465895 248.64381501 536.87465895 248.64381501 533.9375 248.9375 C532.4834375 248.9684375 532.4834375 248.9684375 531 249 C528.19834438 254.80775638 527.37845066 259.74157512 527.00390625 266.12695312 C526.49786267 271.73111657 524.88651521 274.17157919 521 278 C518.0625 279.125 518.0625 279.125 515 279 C508.02502952 275.65201417 505.18774985 269.46111008 502.71459961 262.45092773 C499.21099064 250.43427912 498.23640938 238.17496679 497.34326172 225.75854492 C496.32098238 203.42039569 496.32098238 203.42039569 485.6640625 184.90234375 C477.80941663 179.15878138 470.27373539 176.71476676 460.49121094 177.59326172 C451.66662378 179.03404594 443.06971265 182.30471669 434.61865234 185.15209961 C425.20403405 188.20048385 414.32637825 188.61706662 405.25390625 184.3125 C398.75752051 180.52950934 393.6010864 175.66930525 388.375 170.3125 C378.77075636 160.50587124 369.5097451 158.83963197 356.125 158.5 C333.00270542 157.61547774 333.00270542 157.61547774 325 150 C320.76896208 144.72963047 317.2489979 139.03602251 313.71484375 133.2890625 C308.74624071 125.26195868 303.89626832 117.98630602 295 114 C281.05563739 111.19456527 263.35749815 111.14796392 250.625 117.75 C240.64030567 126.30830943 237.55544458 136.16710392 236 149 C235.76696038 153.21396991 235.76313777 157.40582808 235.8125 161.625 C235.81314453 162.67945313 235.81378906 163.73390625 235.81445312 164.8203125 C235.84628308 170.53555853 236.13233005 176.14051144 236.76196289 181.8203125 C238.15666635 194.59150478 238.15666635 194.59150478 235.375 200.0625 C232.02630987 204.20430095 229.20573158 205.72991042 223.9375 206.375 C220.33797413 205.91548606 218.72776676 205.43287305 216 203 C213.08443382 196.89173805 212.58146851 190.97906948 212.75 184.3125 C212.76643555 182.95282104 212.76643555 182.95282104 212.78320312 181.56567383 C212.89973349 174.20082814 213.2555206 166.84780942 213.64135742 159.49291992 C214.1788903 148.66602347 214.09275779 137.83696348 214 127 C205.20756163 122.31748579 198.18326786 122.28640199 188.8125 125.125 C186.6091656 125.81808388 184.41418656 126.53119837 182.22265625 127.26074219 C179.29104645 128.2357987 176.34676963 129.16783317 173.39916992 130.09326172 C172.0484105 130.51838666 170.69946298 130.94933059 169.3527832 131.38720703 C159.00530744 134.70132589 146.71586332 136.23821429 136.55859375 131.6015625 C132.64637388 129.15269205 129.28281771 126.13637137 125.8293457 123.08764648 C120.24314829 118.2008605 114.81597986 113.93845194 107.125 114.0625 C104.14127308 114.79800182 104.14127308 114.79800182 102.34765625 116.07421875 C99.32776172 117.2650923 96.91374602 117.03126152 93.70410156 116.86865234 C86.53341571 116.51289966 80.55360797 116.22151756 74.76171875 121.0234375 C64.69079621 132.32252133 63.83464326 144.52798607 63.97265625 158.94921875 C63.98530685 161.51497259 63.99766748 164.08072787 64.00976562 166.64648438 C64.0334003 170.6640268 64.06201201 174.68150634 64.09594727 178.69897461 C64.12636729 182.59489393 64.143993 186.49071769 64.16015625 190.38671875 C64.18034569 192.16389534 64.18034569 192.16389534 64.20094299 193.97697449 C64.26337649 214.99975569 64.26337649 214.99975569 58 222 C54.80604825 224.34223128 51.8859891 224.5551413 48 224 C43.85031168 220.79342266 42.35348212 217.98081421 41 213 C40.11755372 203.71712352 41.36486984 194.84028025 42.85107422 185.70898438 C46.57370223 165.22709112 46.57370223 165.22709112 41 146.125 C35.00516255 141.87865681 28.53165835 139.20596291 21.09375 139.625 C15.64798656 140.60036062 12.24228908 143.3842531 8.8125 147.5 C3.1399957 155.7495291 1.46520289 163.69778153 2.6328125 173.5390625 C3.04676698 177.44080369 3.13064992 181.26786575 3.125 185.1875 C3.12757812 186.43917969 3.13015625 187.69085938 3.1328125 188.98046875 C3 192 3 192 2 194 C1.34 194 0.68 194 0 194 C0 129.98 0 65.96 0 0 Z "
        fill="#f5d0fe" transform="translate(0,0)" />
</svg>